# xmcd CD database file
#
# Track frame offsets:
#	150
#	17861
#	36600
#	53906
#	72682
#	89889
#	108838
#	127407
#	147724
#	164169
#	183927
#	201012
#	217481
#	237022
#	256418
#	273306
#	292534
#	311532
#
# Disc length: 4352 seconds
#
# Revision: 0
# Processed by: cddbd v1.5.2PL0 Copyright (c) Steve Scherf et al.
# Submitted via: CDex 1.70beta2
#
DISCID=2b10fe12
DTITLE=Various Artist - Merengue Dominicano - El Burro
DYEAR=2009
DGENRE=Merengue
TTITLE0=Andy Peña - El Burro Mañoso
TTITLE1=Banda Chula - Yo Como Que Te Conozco
TTITLE2=Banda Chula - El Mamón
TTITLE3=Jossie Esteban - El Baile Del Pato
TTITLE4=Banda Chula - Pirulo
TTITLE5=Mala Fe - La Vaca
TTITLE6=Unknown Artist - El Becerro
TTITLE7=Unknown Artist - Están Peleados Y Sabas
TTITLE8=Unknown Artist - El Jarro
TTITLE9=Oro Sólido - El Señorito
TTITLE10=Unknown Artist - Cogiendo Gustico
TTITLE11=Unknown Artist - El Jarro
TTITLE12=Fat Joe and Oro Sólido - Dónde Están Las Mamis
TTITLE13=Oro Sólido - El Vacilón
TTITLE14=Unknown Artist - Los Cuentos
TTITLE15=Oro Sólido - Las Mujeres Quieren Un Macho
TTITLE16=K-Libre - Está Dibudibay
TTITLE17=Unknown Artist - La Rocola
EXTD=YEAR: 2009
EXTT0=
EXTT1=
EXTT2=
EXTT3=
EXTT4=
EXTT5=
EXTT6=
EXTT7=
EXTT8=
EXTT9=
EXTT10=
EXTT11=
EXTT12=
EXTT13=
EXTT14=
EXTT15=
EXTT16=
EXTT17=
PLAYORDER=
